%
M48
M72
T01C0.0150
T02C0.0190
T03C0.0197
T04C0.0236
T05C0.0276
T06C0.0315
T07C0.0400
T08C0.0590
%
T01
X2680Y2400
X2180Y3250
X3080Y3500
X3180Y3950
X4180Y3950
X4280Y3500
X4680Y2400
X1730Y7550
X1930Y8050
X2630Y8700
X1330Y11250
X2930Y11950
X4430Y12050
X5330Y12800
X6030Y14200
X7330Y13450
X8580Y13200
X7530Y15150
X9030Y16250
X12880Y14900
X7280Y10500
X6880Y10150
X6880Y8550
X3180Y13750
X3580Y14350
X5030Y15700
T02
X8930Y9950
X6880Y7550
X11030Y2700
T03
X5830Y5200
X4180Y5950
X4180Y6400
X3680Y6700
X3180Y6400
X3180Y5950
X3680Y5950
X1530Y5200
T04
X16230Y11000
T05
X15130Y8050
X15580Y7400
X15130Y6750
X14630Y7400
X14180Y6750
X13680Y7400
X13230Y8050
X14180Y8050
X14630Y6100
X14180Y5450
X13680Y6100
X13230Y5450
X15130Y5450
X15580Y6100
T06
X12530Y6700
T07
X10280Y5500
X9280Y5500
X8280Y5500
X7280Y5500
X13580Y3350
X14580Y3350
X14880Y13050
X14880Y14050
X14880Y15050
X14880Y16050
X14880Y17050
X13880Y17050
X13880Y16050
X13880Y15050
X13880Y14050
X13880Y13050
X5976Y16471
X5976Y17471
X4976Y17471
X3976Y17471
X3976Y16471
X4976Y16471
X1290Y15790
X1290Y14010
T08
X2270Y13520
X2270Y16280
M30
